<?xml version="1.0" encoding="UTF-8"?>
<svg width="0" height="0" class="hidden">
    <!-- Music/Now Playing Icon -->
    <symbol id="icon-music" viewBox="0 0 24 24" fill="none" stroke="currentColor" stroke-width="2">
        <path d="M9 18V5l12-2v13"></path>
        <circle cx="6" cy="18" r="3"></circle>
        <circle cx="18" cy="16" r="3"></circle>
    </symbol>

    <!-- Search Icon -->
    <symbol id="icon-search" viewBox="0 0 24 24" fill="none" stroke="currentColor" stroke-width="2">
        <circle cx="11" cy="11" r="8"></circle>
        <path d="m21 21-4.35-4.35"></path>
    </symbol>

    <!-- Play Button Icon -->
    <symbol id="icon-play" viewBox="0 0 24 24" fill="currentColor">
        <path d="M8 5v14l11-7z"></path>
    </symbol>

    <!-- Pause Button Icon -->
    <symbol id="icon-pause" viewBox="0 0 24 24" fill="currentColor">
        <rect x="6" y="4" width="4" height="16"></rect>
        <rect x="14" y="4" width="4" height="16"></rect>
    </symbol>

    <!-- Previous Track Icon -->
    <symbol id="icon-previous" viewBox="0 0 24 24" fill="currentColor">
        <path d="M6 6h2v12H6z"></path>
        <path d="M20 6L8 13l12 7z"></path>
    </symbol>

    <!-- Next Track Icon -->
    <symbol id="icon-next" viewBox="0 0 24 24" fill="currentColor">
        <path d="M16 6h2v12h-2z"></path>
        <path d="M4 6l12 7-12 7z"></path>
    </symbol>

    <!-- Shuffle Icon -->
    <symbol id="icon-shuffle" viewBox="0 0 24 24" fill="none" stroke="currentColor" stroke-width="2">
        <polyline points="23 1 23 7 17 7"></polyline>
        <polyline points="1 23 1 17 7 17"></polyline>
        <path d="M1 3.46a9 9 0 0 1 14.85-1"></path>
        <path d="M22.88 20.64a9 9 0 0 1-15.33 2.02"></path>
    </symbol>

    <!-- Repeat Icon -->
    <symbol id="icon-repeat" viewBox="0 0 24 24" fill="none" stroke="currentColor" stroke-width="2">
        <polyline points="17 2 22 7 17 12"></polyline>
        <path d="M3 7a9 9 0 0 1 15 0"></path>
        <polyline points="7 22 2 17 7 12"></polyline>
        <path d="M21 17a9 9 0 0 1-15 0"></path>
    </symbol>

    <!-- Delete/Trash Icon -->
    <symbol id="icon-delete" viewBox="0 0 24 24" fill="none" stroke="currentColor" stroke-width="2">
        <polyline points="3 6 5 6 21 6"></polyline>
        <path d="M19 6v14a2 2 0 0 1-2 2H7a2 2 0 0 1-2-2V6m3 0V4a2 2 0 0 1 2-2h4a2 2 0 0 1 2 2v2"></path>
        <line x1="10" y1="11" x2="10" y2="17"></line>
        <line x1="14" y1="11" x2="14" y2="17"></line>
    </symbol>

    <!-- Playlist Icon -->
    <symbol id="icon-playlist" viewBox="0 0 24 24" fill="none" stroke="currentColor" stroke-width="2">
        <line x1="8" y1="6" x2="21" y2="6"></line>
        <line x1="8" y1="12" x2="21" y2="12"></line>
        <line x1="8" y1="18" x2="21" y2="18"></line>
        <line x1="3" y1="6" x2="3.01" y2="6"></line>
        <line x1="3" y1="12" x2="3.01" y2="12"></line>
        <line x1="3" y1="18" x2="3.01" y2="18"></line>
    </symbol>

    <!-- User/Profile Icon -->
    <symbol id="icon-user" viewBox="0 0 24 24" fill="none" stroke="currentColor" stroke-width="2">
        <path d="M20 21v-2a4 4 0 0 0-4-4H8a4 4 0 0 0-4 4v2"></path>
        <circle cx="12" cy="7" r="4"></circle>
    </symbol>

    <!-- Plus/Add Icon -->
    <symbol id="icon-plus" viewBox="0 0 24 24" fill="none" stroke="currentColor" stroke-width="2">
        <line x1="12" y1="5" x2="12" y2="19"></line>
        <line x1="5" y1="12" x2="19" y2="12"></line>
    </symbol>

    <!-- Fire Icon -->
    <symbol id="icon-fire" viewBox="0 0 24 24" fill="none" stroke="currentColor" stroke-width="2">
        <path d="M12 2a7 7 0 0 0-7 7c0 2.38 1.19 4.47 3 5.74V20a2 2 0 0 0 2 2h4a2 2 0 0 0 2-2v-5.26c1.81-1.27 3-3.36 3-5.74 0-3.87-3.13-7-7-7z"></path>
    </symbol>

    <!-- Star Icon -->
    <symbol id="icon-star" viewBox="0 0 24 24" fill="currentColor">
        <polygon points="12 2 15.09 10.26 24 10.27 17.18 16.91 20.27 25.12 12 19.32 3.73 25.12 6.82 16.91 0 10.27 8.91 10.26 12 2"></polygon>
    </symbol>

    <!-- Headphones Icon -->
    <symbol id="icon-headphones" viewBox="0 0 24 24" fill="none" stroke="currentColor" stroke-width="2">
        <path d="M20 15c0 .552.448 1 1 1s1-.448 1-1c0-4.418-3.582-8-8-8s-8 3.582-8 8c0 .552.448 1 1 1s1-.448 1-1c0-3.313 2.687-6 6-6s6 2.687 6 6zm-6 6c1.1 0 2-.9 2-2v-4c0-1.1-.9-2-2-2s-2 .9-2 2v4c0 1.1.9 2 2 2zm-9-9.5C3 9.12 1.12 11 1.12 13.5S3 18 5.5 18V9.5zm16 0V18c2.5 0 4.38-1.88 4.38-4.5S23.5 9 21.5 9z"></path>
    </symbol>

    <!-- Settings Icon -->
    <symbol id="icon-settings" viewBox="0 0 24 24" fill="none" stroke="currentColor" stroke-width="2">
        <circle cx="12" cy="12" r="3"></circle>
        <path d="M12 1v6m0 6v6M4.22 4.22l4.24 4.24m5.08 5.08l4.24 4.24M1 12h6m6 0h6M4.22 19.78l4.24-4.24m5.08-5.08l4.24-4.24"></path>
    </symbol>

    <!-- Logout/Exit Icon -->
    <symbol id="icon-logout" viewBox="0 0 24 24" fill="none" stroke="currentColor" stroke-width="2">
        <path d="M10 3H5a2 2 0 0 0-2 2v14c0 1.1.9 2 2 2h5m7-5l5-5m0 0l-5-5m5 5H9"></path>
    </symbol>

    <!-- Menu/Hamburger Icon -->
    <symbol id="icon-menu" viewBox="0 0 24 24" fill="none" stroke="currentColor" stroke-width="2">
        <line x1="3" y1="6" x2="21" y2="6"></line>
        <line x1="3" y1="12" x2="21" y2="12"></line>
        <line x1="3" y1="18" x2="21" y2="18"></line>
    </symbol>

    <!-- Close Icon -->
    <symbol id="icon-close" viewBox="0 0 24 24" fill="none" stroke="currentColor" stroke-width="2">
        <line x1="18" y1="6" x2="6" y2="18"></line>
        <line x1="6" y1="6" x2="18" y2="18"></line>
    </symbol>

    <!-- Check Icon -->
    <symbol id="icon-check" viewBox="0 0 24 24" fill="none" stroke="currentColor" stroke-width="2">
        <polyline points="20 6 9 17 4 12"></polyline>
    </symbol>

    <!-- Alert Icon -->
    <symbol id="icon-alert" viewBox="0 0 24 24" fill="none" stroke="currentColor" stroke-width="2">
        <path d="M10.29 3.86L1.82 18a2 2 0 0 0 1.71 3.05h16.94a2 2 0 0 0 1.71-3.05L13.71 3.86a2 2 0 0 0-3.42 0z"></path>
        <line x1="12" y1="9" x2="12" y2="13"></line>
        <line x1="12" y1="17" x2="12.01" y2="17"></line>
    </symbol>
</svg>
